<svg width="180" height="121" viewBox="0 0 180 121" fill="none" xmlns="http://www.w3.org/2000/svg">
<path d="M124.097 73.7706L113.468 58.7126L118.965 66.3446L124.097 73.7706Z" fill="#16A34A"/>
<path fill-rule="evenodd" clip-rule="evenodd" d="M0 0V120.314H18.5627V75.1103H39.5605H44.4579H51.2194C54.6151 75.1103 57.8621 74.7181 60.9603 73.9339C62.1699 73.6277 63.3568 73.2617 64.5211 72.8359C66.513 72.1075 68.4386 71.2042 70.2977 70.1259C76.027 66.6883 80.6104 62.1622 84.0479 56.5476C87.4854 50.9329 89.2042 44.8599 89.2042 38.3286C89.2042 31.1098 87.4854 24.6357 84.0479 18.9065C80.6104 13.0627 75.9697 8.47927 70.1259 5.15632C64.3966 1.71877 58.0945 0 51.2194 0H0ZM52.9381 57.2351H18.5627V17.8752H48.1256C52.3652 17.8752 56.1465 18.7346 59.4695 20.4534C62.907 22.1721 65.5425 24.5784 67.3758 27.6722C69.3238 30.6514 70.2977 34.1463 70.2977 38.1567C70.2977 41.7088 69.5529 44.9745 68.0633 47.9537C66.5737 50.8183 64.5112 53.11 61.8758 54.8288C59.2403 56.433 56.2611 57.2351 52.9381 57.2351Z" fill="white"/>
<path d="M94.7299 0H71.1827L113.468 58.7126L118.965 66.3446L124.097 73.7706L156.262 120.314H179.809L136.576 60.7354L180 0H158.172L126.248 46.0875L94.7299 0Z" fill="white"/>
<path d="M124.097 73.7706L113.468 58.7126L82.06 104.081L60.9603 73.9339C57.8621 74.7181 54.6151 75.1103 51.2194 75.1103H44.4579H39.5605L71.5564 120.314H92.5636L124.097 73.7706Z" fill="#4F46E5"/>
</svg>
