<svg width="181" height="121" viewBox="0 0 181 121" fill="none" xmlns="http://www.w3.org/2000/svg">
<path d="M124.158 73.7706L113.53 58.7126L119.026 66.3446L124.158 73.7706Z" fill="#16A34A"/>
<path fill-rule="evenodd" clip-rule="evenodd" d="M0.0618896 -7.62939e-06V120.314H18.6246V75.1103H39.6224H44.5198H51.2813C54.677 75.1103 57.9239 74.7181 61.0222 73.9339C62.2318 73.6277 63.4187 73.2617 64.583 72.8359C66.5749 72.1075 68.5004 71.2042 70.3596 70.1258C76.0889 66.6883 80.6722 62.1622 84.1098 56.5476C87.5473 50.9329 89.2661 44.8599 89.2661 38.3286C89.2661 31.1097 87.5473 24.6357 84.1098 18.9065C80.6722 13.0627 76.0316 8.47927 70.1878 5.15631C64.4585 1.71876 58.1563 -7.62939e-06 51.2813 -7.62939e-06H0.0618896ZM53 57.2351H18.6246V17.8752H48.1875C52.4271 17.8752 56.2084 18.7346 59.5314 20.4534C62.9689 22.1721 65.6043 24.5784 67.4377 27.6722C69.3856 30.6514 70.3596 34.1462 70.3596 38.1567C70.3596 41.7088 69.6148 44.9745 68.1252 47.9537C66.6356 50.8183 64.5731 53.11 61.9376 54.8288C59.3022 56.433 56.323 57.2351 53 57.2351Z" fill="black"/>
<path d="M94.7917 -7.62939e-06H71.2446L113.53 58.7126L119.026 66.3446L124.158 73.7706L156.324 120.314H179.871L136.638 60.7354L180.062 -7.62939e-06H158.233L126.31 46.0875L94.7917 -7.62939e-06Z" fill="black"/>
<path d="M124.158 73.7706L113.53 58.7126L82.1218 104.081L61.0222 73.9339C57.9239 74.7181 54.677 75.1103 51.2813 75.1103H44.5198H39.6224L71.6182 120.314H92.6254L124.158 73.7706Z" fill="#4F46E5"/>
</svg>
